<svg width="22" height="25" viewBox="0 0 22 25" fill="none" xmlns="http://www.w3.org/2000/svg">
<path d="M21.2 17.6V1.99999C21.2 1.24999 20.75 0.799988 20 0.799988H4.69995C2.14995 0.799988 0.199951 2.74999 0.199951 5.29999V20.3C0.199951 22.85 2.14995 24.8 4.69995 24.8H20C20.6 24.8 21.2 24.35 21.2 23.6V22.85C21.2 22.55 21.05 22.25 20.75 21.95C20.6 21.2 20.6 19.1 20.75 18.5C21.05 18.35 21.2 18.05 21.2 17.6ZM6.94995 8.67499C6.94995 8.57553 6.98946 8.48015 7.05979 8.40982C7.13011 8.3395 7.22549 8.29999 7.32495 8.29999H9.94995V5.67499C9.94995 5.57553 9.98946 5.48015 10.0598 5.40982C10.1301 5.3395 10.2255 5.29999 10.325 5.29999H12.575C12.6744 5.29999 12.7698 5.3395 12.8401 5.40982C12.9104 5.48015 12.95 5.57553 12.95 5.67499V8.29999H15.575C15.6744 8.29999 15.7698 8.3395 15.8401 8.40982C15.9104 8.48015 15.95 8.57553 15.95 8.67499V10.925C15.95 11.0244 15.9104 11.1198 15.8401 11.1902C15.7698 11.2605 15.6744 11.3 15.575 11.3H12.95V13.925C12.95 14.0244 12.9104 14.1198 12.8401 14.1902C12.7698 14.2605 12.6744 14.3 12.575 14.3H10.325C10.2255 14.3 10.1301 14.2605 10.0598 14.1902C9.98946 14.1198 9.94995 14.0244 9.94995 13.925V11.3H7.32495C7.22549 11.3 7.13011 11.2605 7.05979 11.1902C6.98946 11.1198 6.94995 11.0244 6.94995 10.925V8.67499ZM18.0499 21.8H4.69995C3.79995 21.8 3.19995 21.2 3.19995 20.3C3.19995 19.4 3.94995 18.8 4.69995 18.8H18.0499V21.8Z" fill="#757575"/>
</svg>
