<svg width="31" height="31" viewBox="0 0 31 31" fill="none" xmlns="http://www.w3.org/2000/svg">
<path d="M26.6501 9.15002H9.72765L7.78765 4.88252C7.58515 4.43627 7.14015 4.15002 6.65015 4.15002H2.90015V6.65002H5.84515L11.7626 19.6675C11.9651 20.1138 12.4101 20.4 12.9001 20.4H22.9001C23.4001 20.4 23.8526 20.1025 24.0489 19.6425L27.7989 10.8925C27.9651 10.5063 27.9251 10.0638 27.6939 9.71252C27.4614 9.36127 27.0701 9.15002 26.6501 9.15002ZM22.0764 17.9H13.7051L10.8639 11.65H24.7539L22.0764 17.9Z" fill="#757575"/>
<path d="M13.5249 25.4C14.5604 25.4 15.3999 24.5606 15.3999 23.525C15.3999 22.4895 14.5604 21.65 13.5249 21.65C12.4894 21.65 11.6499 22.4895 11.6499 23.525C11.6499 24.5606 12.4894 25.4 13.5249 25.4Z" fill="#757575"/>
<path d="M22.2749 25.4C23.3104 25.4 24.1499 24.5606 24.1499 23.525C24.1499 22.4895 23.3104 21.65 22.2749 21.65C21.2394 21.65 20.3999 22.4895 20.3999 23.525C20.3999 24.5606 21.2394 25.4 22.2749 25.4Z" fill="#757575"/>
</svg>
