<svg width="29" height="25" viewBox="0 0 29 25" fill="none" xmlns="http://www.w3.org/2000/svg">
<path d="M5.39953 3.5274V5.54846H3.08722V9.59056C3.08722 11.8238 5.15674 13.6327 7.71184 13.6327C10.2669 13.6327 12.3365 11.8238 12.3365 9.59056V5.54846H10.0242V3.5274H13.4926C14.1308 3.5274 14.6488 3.98012 14.6488 4.53793V9.59056C14.6488 12.5949 12.1492 15.0878 8.868 15.5698V17.1695C8.868 19.1229 10.6797 20.7064 12.9145 20.7064C14.6453 20.7064 16.1229 19.7565 16.701 18.4195C15.4905 17.9476 14.6488 16.8866 14.6488 15.6537C14.6488 13.9793 16.2015 12.6221 18.1173 12.6221C20.033 12.6221 21.5857 13.9793 21.5857 15.6537C21.5857 17.0392 20.5221 18.2073 19.0699 18.5691C18.36 20.961 15.8732 22.7274 12.9145 22.7274C9.40214 22.7274 6.55569 20.2395 6.55569 17.1695V15.5698C3.27451 15.0888 0.774902 12.5949 0.774902 9.59056V4.53793C0.774902 3.98012 1.29286 3.5274 1.93106 3.5274H5.39953Z" fill="#757575"/>
</svg>
