<svg width="24" height="25" viewBox="0 0 24 25" fill="none" xmlns="http://www.w3.org/2000/svg">
<path d="M12 24.6C18.6274 24.6 24 19.2274 24 12.6C24 11.6381 23.8868 10.7027 23.6731 9.80629C23.5539 9.30628 22.9991 9.06878 22.5347 9.28896C22.153 9.46989 21.9651 9.90223 22.0583 10.3142C22.2247 11.0494 22.3125 11.8144 22.3125 12.6C22.3125 18.2954 17.6954 22.9125 12 22.9125C6.30456 22.9125 1.6875 18.2954 1.6875 12.6C1.6875 6.90454 6.30456 2.28748 12 2.28748C15.6158 2.28748 18.797 4.14837 20.638 6.96468C20.8835 7.3402 21.3654 7.49968 21.7708 7.30752C22.2089 7.09985 22.386 6.5657 22.1254 6.1569C19.9949 2.81585 16.2562 0.599976 12 0.599976C5.37258 0.599976 0 5.97255 0 12.6C0 19.2274 5.37258 24.6 12 24.6Z" fill="#757575"/>
<path fill-rule="evenodd" clip-rule="evenodd" d="M18.2356 7.96686L14.6582 14.9873C14.6047 15.0924 14.5397 15.198 14.4329 15.2481L7.15216 18.6648C6.34395 19.0441 5.51324 18.186 5.91858 17.3905L9.57691 10.2111C9.58451 10.1906 9.62413 10.1415 9.72173 10.1091L17.002 6.69252C17.8102 6.31323 18.641 7.17139 18.2356 7.96686ZM15.6881 10.005L13.5692 14.0705C13.5585 14.0911 13.5449 14.1102 13.5265 14.1244C13.5109 14.1364 13.4906 14.1499 13.4687 14.1599L9.21938 16.1097C8.74768 16.3261 8.26284 15.8364 8.49941 15.3825L10.6345 11.2856C10.639 11.2739 10.6621 11.2459 10.7191 11.2275L14.9681 9.27779C15.4398 9.06135 15.9247 9.55105 15.6881 10.005Z" fill="#757575"/>
</svg>
